<?xml version="1.0" encoding="UTF-8"?>
<!DOCTYPE svg PUBLIC "-//W3C//DTD SVG 1.1//EN" "http://www.w3.org/Graphics/SVG/1.1/DTD/svg11.dtd">
<!-- Creator: CorelDRAW -->
<svg xmlns="http://www.w3.org/2000/svg" xml:space="preserve" width="10in" height="10in" version="1.1" style="shape-rendering:geometricPrecision; text-rendering:geometricPrecision; image-rendering:optimizeQuality; fill-rule:evenodd; clip-rule:evenodd"
viewBox="0 0 10000 10000"
 xmlns:xlink="http://www.w3.org/1999/xlink"
 xmlns:xodm="http://www.corel.com/coreldraw/odm/2003">
 <defs>
  <style type="text/css">
   <![CDATA[
    .str1 {stroke:#015AB1;stroke-width:55.56;stroke-miterlimit:2.61313}
    .str0 {stroke:#AAA0EF;stroke-width:41.67;stroke-miterlimit:2.61313}
    .str2 {stroke:#015AB1;stroke-width:3;stroke-miterlimit:2.61313}
    .fil0 {fill:none}
    .fil4 {fill:none;fill-rule:nonzero}
    .fil3 {fill:#015AB1}
    .fil2 {fill:#AAA0EF}
    .fil1 {fill:#015AB1;fill-rule:nonzero}
   ]]>
  </style>
   <clipPath id="id0" style="clip-rule:nonzero">
    <path d="M2208.66 6036.26c0,-363.24 102.77,-682.19 308.31,-953.29 205.54,-272.87 489.05,-487.28 850.52,-644.97 361.47,-157.7 776.09,-235.67 1243.88,-235.67 226.81,0 450.07,19.49 669.78,58.47 219.72,38.98 411.08,93.91 574.1,164.79l0 -244.52c0,-294.13 -92.14,-520.94 -276.42,-678.64 -184.28,-157.7 -464.24,-235.67 -839.89,-235.67 -311.85,0 -604.22,53.16 -877.09,159.47 -272.87,106.31 -561.7,258.7 -866.46,457.15l-510.31 -1084.41c368.56,-240.98 753.06,-421.72 1153.51,-542.2 400.45,-120.49 823.94,-180.74 1270.46,-180.74 836.34,0 1486.63,196.69 1950.87,588.28 464.24,393.36 696.36,960.37 696.36,1704.57l0 1426.39c0,166.56 26.58,283.51 79.74,349.07 53.16,67.33 147.07,106.31 281.73,120.49l0 1413.98c-141.75,28.35 -274.65,49.61 -398.68,63.79 -124.03,14.18 -232.12,21.26 -324.26,21.26 -318.94,0 -561.7,-63.79 -728.26,-191.37 -166.56,-127.58 -271.1,-301.22 -313.63,-520.94l-31.9 -244.52c-248.07,318.94 -543.97,561.7 -887.72,728.26 -343.75,166.56 -703.45,249.84 -1079.09,249.84 -368.56,0 -699.91,-76.19 -994.04,-230.35 -294.13,-154.15 -526.26,-363.24 -696.36,-629.02 -170.1,-265.79 -255.15,-561.7 -255.15,-889.5zm3380.8 198.45c77.96,-62.02 141.75,-129.35 191.37,-205.54 49.61,-74.42 74.42,-145.3 74.42,-214.4l0 -481.96c-141.76,-54.93 -299.45,-97.45 -473.1,-127.57 -173.65,-30.12 -334.89,-46.07 -483.73,-46.07 -311.86,0 -570.56,67.33 -776.1,200.22 -205.54,132.89 -308.31,308.31 -308.31,526.26 0,124.03 35.44,235.66 106.31,338.43 70.88,102.77 168.33,184.28 292.37,246.3 124.03,62.02 271.1,92.14 441.2,92.14 170.1,0 340.2,-30.12 510.31,-92.14 170.11,-62.02 311.86,-139.98 425.26,-235.67z"/>
   </clipPath>
 </defs>
 <g id="Layer_x0020_1">
  <metadata id="CorelCorpID_0Corel-Layer"/>
  <rect class="fil0" width="10000" height="10000"/>
  <path class="fil1" d="M2208.66 6036.26c0,-363.24 102.77,-682.19 308.31,-953.29 205.54,-272.87 489.05,-487.28 850.52,-644.97 361.47,-157.7 776.09,-235.67 1243.88,-235.67 226.81,0 450.07,19.49 669.78,58.47 219.72,38.98 411.08,93.91 574.1,164.79l0 -244.52c0,-294.13 -92.14,-520.94 -276.42,-678.64 -184.28,-157.7 -464.24,-235.67 -839.89,-235.67 -311.85,0 -604.22,53.16 -877.09,159.47 -272.87,106.31 -561.7,258.7 -866.46,457.15l-510.31 -1084.41c368.56,-240.98 753.06,-421.72 1153.51,-542.2 400.45,-120.49 823.94,-180.74 1270.46,-180.74 836.34,0 1486.63,196.69 1950.87,588.28 464.24,393.36 696.36,960.37 696.36,1704.57l0 1426.39c0,166.56 26.58,283.51 79.74,349.07 53.16,67.33 147.07,106.31 281.73,120.49l0 1413.98c-141.75,28.35 -274.65,49.61 -398.68,63.79 -124.03,14.18 -232.12,21.26 -324.26,21.26 -318.94,0 -561.7,-63.79 -728.26,-191.37 -166.56,-127.58 -271.1,-301.22 -313.63,-520.94l-31.9 -244.52c-248.07,318.94 -543.97,561.7 -887.72,728.26 -343.75,166.56 -703.45,249.84 -1079.09,249.84 -368.56,0 -699.91,-76.19 -994.04,-230.35 -294.13,-154.15 -526.26,-363.24 -696.36,-629.02 -170.1,-265.79 -255.15,-561.7 -255.15,-889.5zm3380.8 198.45c77.96,-62.02 141.75,-129.35 191.37,-205.54 49.61,-74.42 74.42,-145.3 74.42,-214.4l0 -481.96c-141.76,-54.93 -299.45,-97.45 -473.1,-127.57 -173.65,-30.12 -334.89,-46.07 -483.73,-46.07 -311.86,0 -570.56,67.33 -776.1,200.22 -205.54,132.89 -308.31,308.31 -308.31,526.26 0,124.03 35.44,235.66 106.31,338.43 70.88,102.77 168.33,184.28 292.37,246.3 124.03,62.02 271.1,92.14 441.2,92.14 170.1,0 340.2,-30.12 510.31,-92.14 170.11,-62.02 311.86,-139.98 425.26,-235.67z"/>
  <g style="clip-path:url(#id0)">
   <g id="_2696178346032">
    <g>
     <path id="_1" class="fil2 str0" d="M4185.22 2942.68c0,149.21 283.69,-19.72 532.43,-19.72 35.02,0 95.71,14.27 120.51,27.39 37.73,19.96 52.63,48.06 74.81,82.95 92.21,145.02 178.97,337.67 340.13,419.08 171.91,86.84 317.6,-49.71 473.94,-101.76 107.66,-35.85 587.23,-150.31 686.66,6.03 20.17,31.71 34.94,75.66 52.52,115.1 153.49,344.31 267.33,684.06 512.25,976.59 89.2,106.54 277.11,239.54 450.65,239.54 82.65,0 133.54,-49.87 216.92,-9.86 31.37,134.67 -68.73,191.83 -155.15,278.69 -183.75,184.68 -495.6,377.99 -495.6,717.16 0,100.14 29.58,247.88 29.58,404.25 0,116.15 -15.32,237.02 -37.23,327.58 -20.29,83.85 -74.05,202.85 -129.99,244.68 -93.77,70.11 -220.04,50.94 -292.27,161.29 -41.97,64.13 -47.61,150.75 -62.05,223.89 -50.68,256.71 -146.58,216.6 -229.62,322.54 -169.5,216.24 -227.35,376.48 -560.2,376.48 -140.78,0 -186,-77.46 -240.07,-183.9 -217.47,-428.18 -105.06,-432.04 -178.01,-689.66 -33.04,-116.7 -94.63,-218.66 -94.63,-358.92 0,-128.93 49.3,-207.61 49.3,-335.23 0,-139.04 -79.66,-219.82 -134.03,-309.67 -67.56,-111.65 -71.54,-202.59 -92.16,-351.53 -17.22,-124.37 -43.06,-256.94 -95.8,-347.89 -157.59,-271.75 -383.76,-144.52 -604.83,-144.52 -264.02,0 -617.8,14.65 -788.89,-206.95 -158.07,-204.74 -289.64,-507.24 -205.94,-768.16 17.49,-54.52 38.94,-84.52 61,-136.2 107.27,-251.32 248.66,-447.24 419.81,-654.92 22.72,-27.57 40.76,-39.98 40.76,-77.56 0,-31.88 -35.79,-49.3 -69.02,-49.3 -71.89,0 -322.38,385.24 -361.43,456.93 -83.99,154.18 -240.02,404.4 -240.02,588.21 0,209.67 51.09,384.17 148.34,551.72 222.19,382.83 490.72,424.41 936.25,424.41 311.57,0 523.37,-173.19 618.84,268.54 53.89,249.34 19.04,349.52 164.05,565.58 186.97,278.58 -40.51,342.41 53.01,706.2 19.97,77.69 50.69,131.8 74.9,211.04 21.87,71.6 17.63,182.57 28.68,267.12 19.19,146.96 89.1,304.89 148.39,423.47 119.72,239.44 167.86,269.5 430.55,269.5 205.09,0 337.81,-92.93 429.68,-211.21l142.02 -183.36c30.42,-43.48 42.91,-41.59 84.95,-72.81 232.15,-172.35 161.3,-497.99 273.58,-544.78 141.39,-58.92 230.03,-19.39 358.25,-292.5 56.91,-121.22 60.84,-270.56 72.73,-410.46 8.83,-103.94 1.9,-55.44 -0.87,-148.07 -13.39,-448.63 -104.05,-421.83 273.78,-801.58 112.55,-113.13 367.43,-269.5 367.43,-450.94 0,-161.31 -106.09,-197.2 -236.63,-197.2 -136.77,0 -141.96,81.72 -353.22,-60.9 -380.54,-256.91 -564.58,-1074.57 -698.98,-1213.83 -206.83,-214.29 -702.38,-85.72 -942.52,19.5 -136.36,59.74 -217.84,175.99 -415.06,-121.17 -134.24,-202.26 -172.38,-336.03 -357.54,-358.93l-131.54 0c-64.34,5.93 -141.2,19.48 -234.61,41.39 -39.35,9.23 -85.73,19.73 -129.4,28.36 -44.57,8.81 -99.33,13.79 -99.33,68.28z"/>
     <path class="fil2 str0" d="M3544.33 3918.8c0,26.63 4.7,27.19 9.86,49.3 124.85,59.91 116.26,-89.32 298.57,-332.46 26.76,-35.69 44.04,-60.17 71.8,-95.82 52.45,-67.36 111.22,-120.12 164.54,-170.7 20.55,-19.5 21.8,-18.57 43.07,-35.81 70.08,-56.83 15.48,-114.56 -25.82,-114.56 -57.46,0 -143.77,99.42 -179.94,135.57 -107.04,107.01 -382.07,485.99 -382.07,564.48z"/>
     <path class="fil2 str0" d="M4273.96 3238.47c175.69,0 148.84,-119.13 84.96,-134.6 -32.9,-7.96 -100.91,14.09 -117.01,34.37 -33.79,42.55 9.87,100.23 32.05,100.23z"/>
    </g>
   </g>
  </g>
  <g id="_2696178344112">
   <path class="fil3 str1" d="M3260.46 7923.94c38.78,0.37 39.65,-6.48 71.93,-13.68 88.97,-181 -128.48,-170.54 -480.05,-439.4 -51.6,-39.46 -87.02,-64.96 -138.56,-105.88 -97.37,-77.32 -173.4,-163.64 -246.31,-241.98 -28.11,-30.2 -26.74,-32 -51.56,-63.21 -81.79,-102.85 -166.62,-24.13 -167.19,36.02 -0.79,83.67 142.8,210.75 194.96,263.92 154.36,157.37 702.48,563.13 816.78,564.21z"/>
   <path class="fil3 str1" d="M2279.76 6851.98c2.43,-255.85 -171.44,-218.4 -194.85,-125.58 -12.06,47.8 19.12,147.15 48.43,170.87 61.5,49.8 146.11,-12.99 146.42,-45.29z"/>
  </g>
  <path class="fil1" d="M3464.76 7953.21c2.91,-10.84 8.52,-19.52 16.83,-26.03 8.3,-6.52 18.52,-10.5 30.68,-12.07 12.13,-1.46 25.28,-0.34 39.45,3.46 7.08,1.9 14.13,4.37 21.13,7.4 7.02,3.03 12.88,6.45 17.61,10.25l2.41 -8.96c2.84,-10.57 1.85,-19.52 -2.96,-26.91 -4.81,-7.39 -13.43,-12.75 -25.88,-16.09 -9.23,-2.48 -18.46,-3.23 -27.7,-2.26 -9.23,0.98 -19.3,3.33 -30.2,7.08l-6.23 -32.05c13.12,-4.3 26.02,-6.71 38.69,-7.22 12.68,-0.51 25.45,0.96 38.33,4.42 24.04,6.45 41.18,17.39 51.41,32.84 10.23,15.46 12.39,34.22 6.48,56.22l-14.22 52.96c-1.2,4.46 -1.24,7.83 -0.15,10.2 1.11,2.31 3.42,4.19 6.96,5.6l-9.42 35.09c-4.04,-0.4 -7.67,-0.8 -10.9,-1.2 -3.23,-0.41 -5.91,-0.9 -8.06,-1.47 -8.58,-2.3 -14.56,-5.98 -17.92,-11.02 -3.36,-5.04 -4.83,-10.5 -4.41,-16.37l1.37 -8.95c-9.83,7.48 -20.91,12.33 -33.24,14.55 -12.33,2.21 -24.18,1.79 -35.56,-1.26 -11.16,-3 -20.59,-7.94 -28.27,-14.89 -7.68,-6.95 -12.97,-15.1 -15.89,-24.4 -2.91,-9.3 -3.02,-18.93 -0.35,-28.91zm102.7 36.54c3.04,-1.89 5.65,-3.89 7.81,-5.95 2.18,-2.12 3.55,-4.22 4.11,-6.32l4.46 -16.63c-4.59,-3.47 -9.74,-6.58 -15.43,-9.37 -5.7,-2.74 -11.23,-4.86 -16.6,-6.3 -11.16,-3 -20.97,-3.1 -29.43,-0.31 -8.44,2.74 -13.71,8 -15.8,15.78 -1.12,4.18 -1.01,8.47 0.35,12.86 1.35,4.39 3.96,8.37 7.85,11.89 3.89,3.52 8.95,6.09 15.18,7.76 6.44,1.73 13.09,2.25 19.96,1.51 6.87,-0.74 12.72,-2.39 17.54,-4.9zm90.96 63.92l28.39 -128.23 -22.46 -4.97 7.35 -33.2 22.46 4.97 2.3 -10.41c3.12,-14.1 8.16,-25.79 15.1,-35.06 6.95,-9.28 15.33,-15.79 25.15,-19.53 9.82,-3.74 20.48,-4.35 31.98,-1.8 6.94,1.54 13.74,3.95 20.41,7.25 6.67,3.3 13.11,7.34 19.33,12.13l-16.06 30.93c-2.87,-2.45 -6.35,-4.76 -10.42,-6.91 -4.07,-2.15 -8.06,-3.66 -11.97,-4.53 -7.38,-1.63 -13.59,-0.28 -18.65,4.07 -5.06,4.34 -8.69,11.5 -10.9,21.48l-2.67 12.04 41.66 9.22 -7.35 33.19 -41.66 -9.22 -28.38 128.23 -43.61 -9.65zm235.09 -93.29c-13.36,-2.27 -25.74,-1.72 -37.13,1.64 -11.39,3.36 -20.2,9.47 -26.44,18.33l-17.7 104.17 -44.04 -7.48 28.98 -170.56 40.42 6.87 -5.97 35.16c8.14,-10.79 17.5,-18.78 28.07,-23.96 10.57,-5.19 21.18,-7.22 31.81,-6.09 2.41,0.41 4.27,0.73 5.58,0.95 1.32,0.22 2.39,0.52 3.23,0.89l-6.81 40.09zm3.84 132.28l20.32 -173.48 44.36 5.2 -20.32 173.48 -44.36 -5.2zm23.16 -197.65l5.16 -44.03 44.36 5.2 -5.16 44.04 -44.36 -5.2zm181.25 212.81l-48.74 -76.28 -24.35 22.45 -1.55 51.59 -44.65 -1.34 7.3 -243.22 44.65 1.34 -4.44 147.99 72.63 -75.57 47.31 1.42 -67.18 71.46 66.65 101.6 -47.65 -1.43zm63.1 -66.06l-3.28 -108.28 44.65 -1.35 2.98 98.45c0.4,13.16 3.15,23.03 8.23,29.54 5.09,6.57 12.41,9.69 21.96,9.4 5.77,-0.18 11.46,-1.52 17.05,-3.96 5.59,-2.45 10.71,-6.05 15.35,-10.75 4.64,-4.7 8.52,-10.6 11.64,-17.63l-3.25 -107.29 44.65 -1.35 3.72 123.11c0.14,4.61 1.07,7.86 2.8,9.81 1.72,1.89 4.48,3.03 8.27,3.36l1.1 36.32c-4.43,0.8 -8.13,1.41 -11.12,1.83 -2.99,0.43 -5.7,0.67 -8.15,0.75 -8,0.24 -14.55,-1.39 -19.65,-4.85 -5.11,-3.52 -8.2,-8.42 -9.29,-14.78l-1.42 -13.8c-7.42,11.9 -17.15,21.09 -29.18,27.51 -12.03,6.42 -25.38,9.83 -40.04,10.27 -17.99,0.54 -31.83,-4.82 -41.5,-16.09 -9.68,-11.27 -14.85,-28.01 -15.53,-50.22zm367.39 37.28l-44.37 5.2 -11.24 -95.95c-1.6,-13.69 -5.2,-23.39 -10.8,-29.17 -5.59,-5.72 -12.69,-8.08 -21.3,-7.07 -5.96,0.7 -11.8,2.89 -17.52,6.64 -5.71,3.75 -10.69,8.53 -14.93,14.39 -4.24,5.81 -7.06,12.35 -8.45,19.51l11.73 100.15 -44.36 5.2 -20.13 -171.83 40.06 -4.69 3.76 32.06c3.54,-7.97 8.44,-14.86 14.68,-20.79 6.24,-5.94 13.67,-10.78 22.29,-14.58 8.62,-3.75 17.9,-6.24 27.83,-7.4 10.81,-1.27 19.93,-0.38 27.32,2.62 7.4,2.99 13.3,7.5 17.7,13.53 4.39,5.98 7.78,12.96 10.16,20.85 2.38,7.89 4.06,16.02 5.03,24.3l12.54 107.05zm119.66 -23.57c-13.69,2.96 -26.57,3.3 -38.65,1.08 -12.08,-2.22 -22.89,-6.48 -32.45,-12.87 -9.56,-6.35 -17.59,-14.28 -24.07,-23.78 -6.49,-9.51 -10.98,-20.02 -13.49,-31.65 -3.49,-16.13 -3.03,-31.63 1.37,-46.5 4.4,-14.87 12.51,-27.83 24.35,-38.8 11.83,-11.03 26.98,-18.51 45.44,-22.5 18.68,-4.04 35.52,-3.47 50.51,1.75 14.99,5.17 27.46,13.68 37.37,25.35 9.92,11.72 16.53,25.19 19.84,40.5 0.55,2.55 1.02,5.24 1.37,7.94 0.37,2.76 0.62,4.98 0.78,6.77l-131.96 28.53c2.7,8.28 6.86,15.17 12.47,20.61 5.62,5.49 12.09,9.15 19.42,10.97 7.34,1.88 14.81,1.97 22.41,0.33 8.69,-1.88 16.43,-5.77 23.22,-11.67 6.8,-5.9 10.85,-12.63 12.18,-20.2l39.72 2.32c-2.25,9.58 -6.5,18.57 -12.76,26.98 -6.26,8.4 -14.18,15.63 -23.79,21.68 -9.6,6.06 -20.7,10.44 -33.3,13.17zm-66.55 -91.67l89.27 -19.3c-2.7,-8.28 -6.74,-15.14 -12.12,-20.57 -5.37,-5.37 -11.69,-9.12 -18.96,-11.19 -7.28,-2.12 -14.93,-2.29 -22.97,-0.55 -7.82,1.69 -14.56,4.97 -20.2,9.88 -5.65,4.86 -9.81,10.87 -12.48,17.99 -2.65,7.17 -3.5,15.08 -2.54,23.74zm278.11 20.74c-3.14,2.61 -6.95,5.68 -11.44,9.19 -4.49,3.51 -9.46,6.76 -14.93,9.76 -5.46,3 -11.16,5.43 -17.1,7.3 -7.84,2.46 -15.48,3.35 -22.91,2.72 -7.44,-0.69 -14.05,-3.39 -19.85,-8.14 -5.81,-4.76 -10.23,-11.98 -13.26,-21.63l-29.81 -94.81 -21.94 6.9 -10.3 -32.75 21.94 -6.9 -17 -54.06 42.61 -13.4 17 54.06 34.98 -11 10.3 32.75 -34.98 11 25.26 80.34c2,5.6 4.87,9.19 8.62,10.74 3.75,1.56 7.86,1.66 12.31,0.26 4.46,-1.4 8.57,-3.51 12.34,-6.33 3.78,-2.82 6.77,-5.16 8.98,-7.02l19.19 31.01z"/>
  <path id="_1_0" class="fil4 str2" d="M3464.76 7953.21c2.91,-10.84 8.52,-19.52 16.83,-26.03 8.3,-6.52 18.52,-10.5 30.68,-12.07 12.13,-1.46 25.28,-0.34 39.45,3.46 7.08,1.9 14.13,4.37 21.13,7.4 7.02,3.03 12.88,6.45 17.61,10.25l2.41 -8.96c2.84,-10.57 1.85,-19.52 -2.96,-26.91 -4.81,-7.39 -13.43,-12.75 -25.88,-16.09 -9.23,-2.48 -18.46,-3.23 -27.7,-2.26 -9.23,0.98 -19.3,3.33 -30.2,7.08l-6.23 -32.05c13.12,-4.3 26.02,-6.71 38.69,-7.22 12.68,-0.51 25.45,0.96 38.33,4.42 24.04,6.45 41.18,17.39 51.41,32.84 10.23,15.46 12.39,34.22 6.48,56.22l-14.22 52.96c-1.2,4.46 -1.24,7.83 -0.15,10.2 1.11,2.31 3.42,4.19 6.96,5.6l-9.42 35.09c-4.04,-0.4 -7.67,-0.8 -10.9,-1.2 -3.23,-0.41 -5.91,-0.9 -8.06,-1.47 -8.58,-2.3 -14.56,-5.98 -17.92,-11.02 -3.36,-5.04 -4.83,-10.5 -4.41,-16.37l1.37 -8.95c-9.83,7.48 -20.91,12.33 -33.24,14.55 -12.33,2.21 -24.18,1.79 -35.56,-1.26 -11.16,-3 -20.59,-7.94 -28.27,-14.89 -7.68,-6.95 -12.97,-15.1 -15.89,-24.4 -2.91,-9.3 -3.02,-18.93 -0.35,-28.91zm102.7 36.54c3.04,-1.89 5.65,-3.89 7.81,-5.95 2.18,-2.12 3.55,-4.22 4.11,-6.32l4.46 -16.63c-4.59,-3.47 -9.74,-6.58 -15.43,-9.37 -5.7,-2.74 -11.23,-4.86 -16.6,-6.3 -11.16,-3 -20.97,-3.1 -29.43,-0.31 -8.44,2.74 -13.71,8 -15.8,15.78 -1.12,4.18 -1.01,8.47 0.35,12.86 1.35,4.39 3.96,8.37 7.85,11.89 3.89,3.52 8.95,6.09 15.18,7.76 6.44,1.73 13.09,2.25 19.96,1.51 6.87,-0.74 12.72,-2.39 17.54,-4.9zm90.96 63.92l28.39 -128.23 -22.46 -4.97 7.35 -33.2 22.46 4.97 2.3 -10.41c3.12,-14.1 8.16,-25.79 15.1,-35.06 6.95,-9.28 15.33,-15.79 25.15,-19.53 9.82,-3.74 20.48,-4.35 31.98,-1.8 6.94,1.54 13.74,3.95 20.41,7.25 6.67,3.3 13.11,7.34 19.33,12.13l-16.06 30.93c-2.87,-2.45 -6.35,-4.76 -10.42,-6.91 -4.07,-2.15 -8.06,-3.66 -11.97,-4.53 -7.38,-1.63 -13.59,-0.28 -18.65,4.07 -5.06,4.34 -8.69,11.5 -10.9,21.48l-2.67 12.04 41.66 9.22 -7.35 33.19 -41.66 -9.22 -28.38 128.23 -43.61 -9.65zm235.09 -93.29c-13.36,-2.27 -25.74,-1.72 -37.13,1.64 -11.39,3.36 -20.2,9.47 -26.44,18.33l-17.7 104.17 -44.04 -7.48 28.98 -170.56 40.42 6.87 -5.97 35.16c8.14,-10.79 17.5,-18.78 28.07,-23.96 10.57,-5.19 21.18,-7.22 31.81,-6.09 2.41,0.41 4.27,0.73 5.58,0.95 1.32,0.22 2.39,0.52 3.23,0.89l-6.81 40.09zm3.84 132.28l20.32 -173.48 44.36 5.2 -20.32 173.48 -44.36 -5.2zm23.16 -197.65l5.16 -44.03 44.36 5.2 -5.16 44.04 -44.36 -5.2zm181.25 212.81l-48.74 -76.28 -24.35 22.45 -1.55 51.59 -44.65 -1.34 7.3 -243.22 44.65 1.34 -4.44 147.99 72.63 -75.57 47.31 1.42 -67.18 71.46 66.65 101.6 -47.65 -1.43zm63.1 -66.06l-3.28 -108.28 44.65 -1.35 2.98 98.45c0.4,13.16 3.15,23.03 8.23,29.54 5.09,6.57 12.41,9.69 21.96,9.4 5.77,-0.18 11.46,-1.52 17.05,-3.96 5.59,-2.45 10.71,-6.05 15.35,-10.75 4.64,-4.7 8.52,-10.6 11.64,-17.63l-3.25 -107.29 44.65 -1.35 3.72 123.11c0.14,4.61 1.07,7.86 2.8,9.81 1.72,1.89 4.48,3.03 8.27,3.36l1.1 36.32c-4.43,0.8 -8.13,1.41 -11.12,1.83 -2.99,0.43 -5.7,0.67 -8.15,0.75 -8,0.24 -14.55,-1.39 -19.65,-4.85 -5.11,-3.52 -8.2,-8.42 -9.29,-14.78l-1.42 -13.8c-7.42,11.9 -17.15,21.09 -29.18,27.51 -12.03,6.42 -25.38,9.83 -40.04,10.27 -17.99,0.54 -31.83,-4.82 -41.5,-16.09 -9.68,-11.27 -14.85,-28.01 -15.53,-50.22zm367.39 37.28l-44.37 5.2 -11.24 -95.95c-1.6,-13.69 -5.2,-23.39 -10.8,-29.17 -5.59,-5.72 -12.69,-8.08 -21.3,-7.07 -5.96,0.7 -11.8,2.89 -17.52,6.64 -5.71,3.75 -10.69,8.53 -14.93,14.39 -4.24,5.81 -7.06,12.35 -8.45,19.51l11.73 100.15 -44.36 5.2 -20.13 -171.83 40.06 -4.69 3.76 32.06c3.54,-7.97 8.44,-14.86 14.68,-20.79 6.24,-5.94 13.67,-10.78 22.29,-14.58 8.62,-3.75 17.9,-6.24 27.83,-7.4 10.81,-1.27 19.93,-0.38 27.32,2.62 7.4,2.99 13.3,7.5 17.7,13.53 4.39,5.98 7.78,12.96 10.16,20.85 2.38,7.89 4.06,16.02 5.03,24.3l12.54 107.05zm119.66 -23.57c-13.69,2.96 -26.57,3.3 -38.65,1.08 -12.08,-2.22 -22.89,-6.48 -32.45,-12.87 -9.56,-6.35 -17.59,-14.28 -24.07,-23.78 -6.49,-9.51 -10.98,-20.02 -13.49,-31.65 -3.49,-16.13 -3.03,-31.63 1.37,-46.5 4.4,-14.87 12.51,-27.83 24.35,-38.8 11.83,-11.03 26.98,-18.51 45.44,-22.5 18.68,-4.04 35.52,-3.47 50.51,1.75 14.99,5.17 27.46,13.68 37.37,25.35 9.92,11.72 16.53,25.19 19.84,40.5 0.55,2.55 1.02,5.24 1.37,7.94 0.37,2.76 0.62,4.98 0.78,6.77l-131.96 28.53c2.7,8.28 6.86,15.17 12.47,20.61 5.62,5.49 12.09,9.15 19.42,10.97 7.34,1.88 14.81,1.97 22.41,0.33 8.69,-1.88 16.43,-5.77 23.22,-11.67 6.8,-5.9 10.85,-12.63 12.18,-20.2l39.72 2.32c-2.25,9.58 -6.5,18.57 -12.76,26.98 -6.26,8.4 -14.18,15.63 -23.79,21.68 -9.6,6.06 -20.7,10.44 -33.3,13.17zm-66.55 -91.67l89.27 -19.3c-2.7,-8.28 -6.74,-15.14 -12.12,-20.57 -5.37,-5.37 -11.69,-9.12 -18.96,-11.19 -7.28,-2.12 -14.93,-2.29 -22.97,-0.55 -7.82,1.69 -14.56,4.97 -20.2,9.88 -5.65,4.86 -9.81,10.87 -12.48,17.99 -2.65,7.17 -3.5,15.08 -2.54,23.74zm278.11 20.74c-3.14,2.61 -6.95,5.68 -11.44,9.19 -4.49,3.51 -9.46,6.76 -14.93,9.76 -5.46,3 -11.16,5.43 -17.1,7.3 -7.84,2.46 -15.48,3.35 -22.91,2.72 -7.44,-0.69 -14.05,-3.39 -19.85,-8.14 -5.81,-4.76 -10.23,-11.98 -13.26,-21.63l-29.81 -94.81 -21.94 6.9 -10.3 -32.75 21.94 -6.9 -17 -54.06 42.61 -13.4 17 54.06 34.98 -11 10.3 32.75 -34.98 11 25.26 80.34c2,5.6 4.87,9.19 8.62,10.74 3.75,1.56 7.86,1.66 12.31,0.26 4.46,-1.4 8.57,-3.51 12.34,-6.33 3.78,-2.82 6.77,-5.16 8.98,-7.02l19.19 31.01z"/>
 </g>
</svg>
